Coordinates
version=1
nRows=31
nColumns=33
inDegrees=yes

Units are S.I. units (second, meters, Newtons, ...)
Angles are in degrees.

endheader
time	ground_thorax_rot_x	ground_thorax_rot_y	ground_thorax_rot_z	ground_thorax_tx	ground_thorax_ty	ground_thorax_tz	clav_prot_r	clav_elev_r	scapula_abduction_r	scapula_elevation_r	scapula_upward_rot_r	scapula_winging_r	shoulder_elv_r	plane_of_elev_r	axial_rot_r	elbow_flexion_r	pro_sup_r	wrist_flex_r	wrist_dev_r	clav_prot_l	clav_elev_l	scapula_abduction_l	scapula_elevation_l	scapula_upward_rot_l	scapula_winging_l	shoulder_elv_l	plane_of_elev_l	axial_rot_l	elbow_flexion_l	pro_sup_l	wrist_flex_l	wrist_dev_l	
6.1300	37.683794	9.347779	13.286731	-175.362586	817.787152	-0.484278	16.949276	39.698478	42.815060	44.999999	-39.876580	2794.234694	-2449.572281	33.620787	49.024029	1464.273853	180.585273	10.693769	4.199104	9.909373	-45.000000	-41.074934	45.000000	-31.406281	-2784.416426	-454.044256	136.162672	-173.759368	2168.400157	26.183361	8.558406	-22.599375	
6.1400	37.771850	9.211919	13.020517	-171.451367	817.199377	-0.297745	17.020402	39.881774	43.047315	44.999999	-39.210368	2794.350515	-2449.745034	33.610178	48.940294	1464.156945	181.758048	10.562146	4.081664	9.845877	-45.000000	-41.398406	45.000000	-30.311695	-2784.645768	-454.225445	136.146716	-173.578797	2168.409089	25.880926	8.835979	-22.469117	
6.1500	37.856782	9.065393	12.742564	-167.430838	816.503071	-0.085890	17.091739	40.067323	43.283553	44.999998	-38.541096	2794.472452	-2449.926698	33.603837	48.971044	1464.038960	183.010439	10.430476	3.984217	9.783233	-45.000000	-41.738667	45.000000	-29.193483	-2784.877579	-454.421490	136.122104	-173.345053	2168.405479	25.716721	9.102000	-22.337045	
6.1600	37.940777	8.906808	12.449388	-163.304795	815.692207	0.138527	17.166829	40.255597	43.523897	44.999997	-37.865835	2794.603428	-2450.121914	33.597192	49.104966	1463.912802	184.372977	10.296951	3.904737	9.718120	-45.000000	-42.100315	45.000000	-28.049485	-2785.109556	-454.636744	136.090218	-173.057631	2168.385413	25.687141	9.360289	-22.207515	
6.1700	38.024624	8.743809	12.143536	-159.075814	814.761421	0.360365	17.240127	40.447637	43.767770	44.999994	-37.182410	2794.740760	-2450.337147	33.585800	49.314367	1463.769260	185.843250	10.160734	3.831702	9.653505	-45.000000	-42.478270	45.000000	-26.892388	-2785.344536	-454.869146	136.049558	-172.711809	2168.346867	25.782515	9.608049	-22.081957	
6.1800	38.112186	8.577802	11.826125	-154.750449	813.709500	0.567175	17.309319	40.648181	44.017327	44.999989	-36.493793	2794.881282	-2450.577298	33.572859	49.579573	1463.602286	187.388956	10.022422	3.752888	9.590247	-45.000000	-42.875418	45.000000	-25.735001	-2785.585442	-455.120172	136.007403	-172.305772	2168.290851	25.987819	9.839169	-21.961215	
6.1900	38.201599	8.417940	11.501447	-150.338525	812.539838	0.750459	17.362089	40.850417	44.263795	44.999980	-35.799314	2795.025969	-2450.839660	33.555138	49.858446	1463.411198	188.972096	9.882110	3.657391	9.532723	-45.000000	-43.274359	45.000000	-24.599075	-2785.838897	-455.379630	135.951770	-171.841556	2168.207435	26.291150	10.055371	-21.844920	
6.2000	38.294613	8.266101	11.175112	-145.855543	811.261845	0.906669	17.394444	41.052364	44.494025	44.999964	-35.104832	2795.181657	-2451.113628	33.541213	50.132578	1463.197225	190.551776	9.741253	3.539556	9.479739	-45.000000	-43.667474	45.000000	-23.501054	-2786.109766	-455.647363	135.889872	-171.324036	2168.099282	26.678587	10.254894	-21.734545	
6.2100	38.387871	8.147155	10.865574	-141.319485	809.889469	1.035531	17.361419	41.244998	44.687071	44.999936	-34.411515	2795.340775	-2451.395982	33.534742	50.410615	1462.967570	192.081153	9.600849	3.386351	9.440121	-45.000000	-44.024464	45.000000	-22.522445	-2786.425128	-455.896077	135.809277	-170.762315	2167.961282	27.132952	10.429999	-21.625849	
6.2200	38.482874	8.037487	10.559664	-136.751484	808.440460	1.138138	17.315394	41.428135	44.833823	44.999886	-33.723342	2795.538563	-2451.662334	33.531977	50.657470	1462.726364	193.559508	9.462263	3.217277	9.388922	-45.000000	-44.339902	45.000000	-21.595836	-2786.771554	-456.141882	135.723639	-170.151444	2167.794846	27.650792	10.603091	-21.527319	
6.2300	38.574347	7.953198	10.275783	-132.171144	806.934033	1.215398	17.255350	41.596150	44.927812	44.999795	-33.063769	2795.776562	-2451.907667	33.532899	50.879464	1462.477128	194.983982	9.326127	3.035707	9.331885	-45.000000	-44.588134	45.000000	-20.758432	-2787.160725	-456.372882	135.628511	-169.495410	2167.597606	28.221362	10.773078	-21.437407	
6.2400	38.665407	7.872312	10.000810	-127.598764	805.390689	1.268180	17.234010	41.752688	44.977745	44.999633	-32.435639	2796.072331	-2452.122721	33.531410	51.071488	1462.220554	196.377786	9.193378	2.862618	9.248294	-45.000000	-44.772992	45.000000	-19.949693	-2787.575264	-456.605840	135.533732	-168.784485	2167.373705	28.840249	10.956087	-21.361543	
6.2500	38.754298	7.828001	9.765279	-123.052939	803.830990	1.298060	17.205931	41.899560	44.995334	44.999343	-31.864759	2796.380512	-2452.334666	33.543643	51.304573	1461.953544	197.726273	9.066094	2.686133	9.167313	-45.000000	-44.887988	45.000000	-19.266692	-2788.030989	-456.820531	135.431375	-168.020241	2167.127844	29.484555	11.124378	-21.289087	
6.2600	38.846579	7.782667	9.538564	-118.553199	802.275309	1.307541	17.215267	42.043591	45.000000	44.998821	-31.324894	2796.717432	-2452.537896	33.549066	51.573276	1461.676687	199.063003	8.943492	2.525574	9.065381	-45.000000	-44.957587	45.000000	-18.616229	-2788.499632	-457.037166	135.328509	-167.186477	2166.861634	30.152709	11.299762	-21.225355	
6.2700	38.942795	7.744549	9.327502	-114.117106	800.742456	1.300033	17.213991	42.180848	45.000000	44.997891	-30.797554	2797.053077	-2452.752885	33.547184	51.920642	1461.384212	200.408854	8.824361	2.371204	8.957565	-45.000000	-44.988370	45.000000	-18.053138	-2788.984229	-457.240948	135.209884	-166.284084	2166.572964	30.838572	11.467494	-21.162504	
6.2800	39.046333	7.702092	9.115914	-109.762365	799.249563	1.279477	17.204536	42.313254	45.000000	44.996216	-30.262882	2797.389712	-2452.973627	33.522889	52.341672	1461.080471	201.810767	8.705132	2.229969	8.836790	-45.000000	-45.000000	45.000000	-17.544004	-2789.473274	-457.435141	135.074448	-165.309800	2166.263871	31.544742	11.634352	-21.102106	
6.2900	39.157085	7.655924	8.900850	-105.505724	797.811586	1.249993	17.153773	42.437383	45.000000	44.993239	-29.708231	2797.707259	-2453.214064	33.484194	52.846283	1460.756454	203.326850	8.584262	2.098326	8.710921	-45.000000	-45.000000	45.000000	-17.117010	-2789.971135	-457.604553	134.912314	-164.259112	2165.930553	32.274982	11.789522	-21.039199	
6.3000	39.269950	7.599395	8.675157	-101.363921	796.441442	1.215526	17.103039	42.555780	45.000000	44.987843	-29.157737	2798.026428	-2453.453860	33.424468	53.382645	1460.412826	205.049518	8.460166	1.994996	8.579460	-45.000000	-45.000000	45.000000	-16.708321	-2790.463317	-457.758982	134.736772	-163.136085	2165.577879	33.035121	11.942602	-20.979625	
6.3100	39.382698	7.531508	8.439736	-97.353169	795.150249	1.179645	17.055554	42.665797	45.000000	44.978351	-28.611983	2798.341031	-2453.694348	33.351812	53.915199	1460.036049	207.109963	8.336653	1.930889	8.447427	-45.000000	-45.000000	45.000000	-16.319330	-2790.948792	-457.895372	134.550949	-161.954022	2165.209038	33.825389	12.084558	-20.921393	
6.3200	39.489662	7.471056	8.210275	-93.489334	793.947648	1.145350	17.000713	42.766764	45.000000	44.960865	-28.100810	2798.638197	-2453.928557	33.279210	54.393678	1459.623591	209.668957	8.220335	1.915880	8.330610	-45.000000	-45.000000	45.000000	-15.981634	-2791.430062	-458.005617	134.361115	-160.759402	2164.839379	34.631682	12.202247	-20.862545	
6.3300	39.591968	7.399857	7.969982	-89.787628	792.842013	1.114940	16.937573	42.851633	45.000000	44.930891	-27.593314	2798.915364	-2454.150952	33.212693	54.689870	1459.148352	213.104242	8.131186	1.981592	8.216355	-45.000000	-45.000000	45.000000	-15.676335	-2791.899930	-458.090452	134.163852	-159.575070	2164.472950	35.452951	12.300385	-20.803536	
6.3400	39.678676	7.359213	7.761691	-86.260807	791.839950	1.089862	16.831517	42.890600	45.000000	44.873433	-27.136923	2799.147839	-2454.351257	33.173661	54.673156	1458.594018	217.785813	8.098380	2.148087	8.129616	-45.000000	-45.000000	45.000000	-15.488998	-2792.353364	-458.137995	133.959387	-158.471803	2164.140973	36.264414	12.367907	-20.742024	
6.3500	39.750315	7.327911	7.566300	-82.918680	790.945914	1.070708	16.697582	42.883246	45.000000	44.781024	-26.686773	2799.345828	-2454.501691	33.164021	53.907185	1457.887364	225.006805	8.207981	2.521970	8.053003	-45.000000	-45.000000	45.000000	-15.378088	-2792.786077	-458.149438	133.746507	-157.443282	2163.835724	37.078223	12.415118	-20.682129	
6.3600	39.802119	7.316449	7.392079	-79.765924	790.161365	1.057300	16.532861	42.829471	45.000000	44.651022	-26.253788	2799.497921	-2454.591979	33.205112	52.129974	1456.993558	235.472536	8.514614	3.157613	7.995646	-45.000000	-45.000000	45.000000	-15.331971	-2793.196248	-458.130907	133.537361	-156.504693	2163.565955	37.880274	12.435212	-20.624402	
6.3700	39.844757	7.260218	7.172681	-76.803336	789.484971	1.048963	16.365237	42.767478	45.000000	44.491504	-25.740461	2799.631103	-2454.539202	33.355226	47.518540	1455.565178	255.049736	9.373552	4.509209	7.916356	-45.000000	-45.000000	45.000000	-15.215872	-2793.599527	-458.083355	133.330723	-155.451209	2163.288716	38.820584	12.426670	-20.593878	
6.3800	39.871533	7.192698	6.947628	-74.027805	788.912383	1.044922	16.191372	42.693692	45.000000	44.307712	-25.199756	2799.733554	-2454.379001	33.613068	40.602706	1453.723313	281.627542	10.685266	6.428205	7.843578	-45.000000	-45.000000	45.000000	-15.072189	-2793.986163	-458.022506	133.139044	-154.386494	2163.019095	39.793996	12.396223	-20.573768	
6.3900	39.887190	7.095526	6.702818	-71.435946	788.437592	1.044788	16.039445	42.642189	45.000000	44.114715	-24.624920	2799.836464	-2454.122321	33.939273	31.875661	1451.588618	313.344228	12.351026	8.777367	7.763217	-45.000000	-45.000000	45.000000	-14.847583	-2794.359878	-457.967768	132.979498	-153.330492	2162.740232	40.743284	12.353918	-20.555282	
6.4000	39.890771	6.989093	6.465789	-69.025161	788.053309	1.048940	15.909954	42.601893	45.000000	43.925815	-24.065494	2799.942669	-2453.880140	34.238133	23.740417	1449.647607	342.110897	13.898559	10.938782	7.682722	-45.000000	-45.000000	45.000000	-14.573831	-2794.702130	-457.948682	132.871300	-152.493447	2162.476167	41.462860	12.323863	-20.508041	
6.4100	39.888880	6.857038	6.218082	-66.795854	787.752032	1.058690	15.799680	42.580766	45.000000	43.750908	-23.510533	2800.062481	-2453.660441	34.487752	16.506044	1447.961094	367.098573	15.267816	12.827330	7.584629	-45.000000	-45.000000	45.000000	-14.230505	-2795.019149	-457.960321	132.804247	-151.806371	2162.212850	41.996866	12.302986	-20.439234	
6.4200	39.876172	6.745146	6.009675	-64.750520	787.525744	1.076299	15.692706	42.547029	45.000000	43.591002	-23.031742	2800.171113	-2453.555330	34.632606	12.042764	1446.883779	382.265211	16.099937	13.974155	7.498983	-45.000000	-45.000000	45.000000	-13.915415	-2795.294629	-458.004901	132.775784	-151.414903	2161.981174	42.223678	12.302091	-20.330814	
6.4300	39.858047	6.629943	5.811086	-62.893465	787.366409	1.104734	15.594303	42.512340	45.000000	43.449518	-22.602563	2800.275012	-2453.540492	34.682390	9.938594	1446.321690	389.316793	16.478995	14.490523	7.409816	-45.000000	-45.000000	45.000000	-13.591264	-2795.536800	-458.064661	132.770105	-151.186673	2161.764986	42.259945	12.310816	-20.202590	
